<svg height="auto" viewBox="0 0 2000 1000" xmlns="http://www.w3.org/2000/svg"><path d="M0 989.39c21-3.36 63-1.39 105-16.8 42-15.408 63-42.033 105-60.244 42-18.212 63-25.38 105-30.812 42-5.43 63 18.274 105 3.657s63-49.881 105-76.741 63-44.491 105-57.56c42-13.07 63 17.488 105-7.789 42-25.276 63-89.818 105-118.596 42-28.778 63-26.109 105-25.294 42 .814 63 27.44 105 29.367 42 1.927 63 3.648 105-19.73 42-23.379 63-56.29 105-97.16 42-40.872 63-108.424 105-107.196 42 1.229 63 99.121 105 113.338 42 14.217 63-36.352 105-42.254 42-5.9 63 33.928 105 12.749 42-21.18 63-67.05 105-118.644 42-51.594 63-120.598 105-139.326 42-18.727 84 36.55 105 45.688l5 723.957H0Z" fill="#444cf71a"/><path d="M0 989.39c21-3.36 63-1.39 105-16.8 42-15.408 63-42.033 105-60.244 42-18.212 63-25.38 105-30.812 42-5.43 63 18.274 105 3.657s63-49.881 105-76.741 63-44.491 105-57.56c42-13.07 63 17.488 105-7.789 42-25.276 63-89.818 105-118.596 42-28.778 63-26.109 105-25.294 42 .814 63 27.44 105 29.367 42 1.927 63 3.648 105-19.73 42-23.379 63-56.29 105-97.16 42-40.872 63-108.424 105-107.196 42 1.229 63 99.121 105 113.338 42 14.217 63-36.352 105-42.254 42-5.9 63 33.928 105 12.749 42-21.18 63-67.05 105-118.644 42-51.594 63-120.598 105-139.326 42-18.727 84 36.55 105 45.688" fill="none" stroke="#444cf7" stroke-width="4"/><g fill="#444cf7"><circle cy="989.391" r="8"/><circle cx="105" cy="972.591" r="8"/><circle cx="210" cy="912.346" r="8"/><circle cx="315" cy="881.534" r="8"/><circle cx="420" cy="885.191" r="8"/><circle cx="525" cy="808.45" r="8"/><circle cx="630" cy="750.889" r="8"/><circle cx="735" cy="743.101" r="8"/><circle cx="840" cy="624.505" r="8"/><circle cx="945" cy="599.211" r="8"/><circle cx="1050" cy="628.578" r="8"/><circle cx="1155" cy="608.848" r="8"/><circle cx="1260" cy="511.687" r="8"/><circle cx="1365" cy="404.492" r="8"/><circle cx="1470" cy="517.83" r="8"/><circle cx="1575" cy="475.576" r="8"/><circle cx="1680" cy="488.325" r="8"/><circle cx="1785" cy="369.681" r="8"/><circle cx="1890" cy="230.355" r="8"/><circle cx="1995" cy="276.043" r="8"/></g></svg>