<svg height="auto" viewBox="0 0 2000 1000" xmlns="http://www.w3.org/2000/svg"><path d="M0 458.961c21 53.006 63 248.85 105 265.029 42 16.178 63-147.82 105-184.138 42-36.318 63-32.857 105 2.549s63 241.137 105 174.483 63-426.57 105-507.753c42-81.184 63 34.896 105 101.834 42 66.937 63 172.362 105 232.853 42 60.491 63 63.841 105 69.602 42 5.76 63-50.131 105-40.801 42 9.33 63 84.692 105 87.452 42 2.76 63-54.463 105-73.651 42-19.188 63-49.778 105-22.288s63 236.918 105 159.739c42-77.18 63-485.491 105-545.636 42-60.145 63 167.594 105 244.91s63 182.72 105 141.669c42-41.052 63-386.38 105-346.928s63 502.93 105 544.185c42 41.254 84-270.332 105-337.915l5 575.844H0Z" fill="#444cf71a"/><path d="M0 458.961c21 53.006 63 248.85 105 265.029 42 16.178 63-147.82 105-184.138 42-36.318 63-32.857 105 2.549s63 241.137 105 174.483 63-426.57 105-507.753c42-81.184 63 34.896 105 101.834 42 66.937 63 172.362 105 232.853 42 60.491 63 63.841 105 69.602 42 5.76 63-50.131 105-40.801 42 9.33 63 84.692 105 87.452 42 2.76 63-54.463 105-73.651 42-19.188 63-49.778 105-22.288s63 236.918 105 159.739c42-77.18 63-485.491 105-545.636 42-60.145 63 167.594 105 244.91s63 182.72 105 141.669c42-41.052 63-386.38 105-346.928s63 502.93 105 544.185c42 41.254 84-270.332 105-337.915" fill="none" stroke="#444cf7" stroke-width="4"/><g fill="#444cf7"><circle cy="458.961" r="8"/><circle cx="105" cy="723.99" r="8"/><circle cx="210" cy="539.852" r="8"/><circle cx="315" cy="542.401" r="8"/><circle cx="420" cy="716.884" r="8"/><circle cx="525" cy="209.131" r="8"/><circle cx="630" cy="310.965" r="8"/><circle cx="735" cy="543.818" r="8"/><circle cx="840" cy="613.42" r="8"/><circle cx="945" cy="572.619" r="8"/><circle cx="1050" cy="660.071" r="8"/><circle cx="1155" cy="586.42" r="8"/><circle cx="1260" cy="564.132" r="8"/><circle cx="1365" cy="723.871" r="8"/><circle cx="1470" cy="178.235" r="8"/><circle cx="1575" cy="423.145" r="8"/><circle cx="1680" cy="564.814" r="8"/><circle cx="1785" cy="217.886" r="8"/><circle cx="1890" cy="762.071" r="8"/><circle cx="1995" cy="424.156" r="8"/></g></svg>