<svg height="auto" viewBox="0 0 2000 1000" xmlns="http://www.w3.org/2000/svg"><path d="M0 25.56c21 2.248 63 3.95 105 11.242 42 7.292 63 2.4 105 25.218 42 22.816 63 76.702 105 88.866 42 12.164 63-50.706 105-28.046 42 22.66 63 108.063 105 141.344 42 33.28 63 35.898 105 25.06 42-10.837 63-92.372 105-79.247 42 13.126 63 104.05 105 144.874 42 40.825 63 54.562 105 59.251 42 4.69 63-25.27 105-35.806 42-10.534 63-59.063 105-16.868 42 42.195 63 185.079 105 227.843 42 42.763 63-8.744 105-14.023 42-5.28 63-13.345 105-12.373 42 .971 63-22.14 105 17.23 42 39.369 63 166.04 105 179.615 42 13.573 63-60.305 105-111.747 42-51.441 63-191.994 105-145.462 42 46.532 84 302.497 105 378.122l5 119.347H0Z" fill="#444cf71a"/><path d="M0 25.56c21 2.248 63 3.95 105 11.242 42 7.292 63 2.4 105 25.218 42 22.816 63 76.702 105 88.866 42 12.164 63-50.706 105-28.046 42 22.66 63 108.063 105 141.344 42 33.28 63 35.898 105 25.06 42-10.837 63-92.372 105-79.247 42 13.126 63 104.05 105 144.874 42 40.825 63 54.562 105 59.251 42 4.69 63-25.27 105-35.806 42-10.534 63-59.063 105-16.868 42 42.195 63 185.079 105 227.843 42 42.763 63-8.744 105-14.023 42-5.28 63-13.345 105-12.373 42 .971 63-22.14 105 17.23 42 39.369 63 166.04 105 179.615 42 13.573 63-60.305 105-111.747 42-51.441 63-191.994 105-145.462 42 46.532 84 302.497 105 378.122" fill="none" stroke="#444cf7" stroke-width="4"/><g fill="#444cf7"><circle cy="25.559" r="8"/><circle cx="105" cy="36.802" r="8"/><circle cx="210" cy="62.02" r="8"/><circle cx="315" cy="150.886" r="8"/><circle cx="420" cy="122.84" r="8"/><circle cx="525" cy="264.184" r="8"/><circle cx="630" cy="289.244" r="8"/><circle cx="735" cy="209.997" r="8"/><circle cx="840" cy="354.871" r="8"/><circle cx="945" cy="414.122" r="8"/><circle cx="1050" cy="378.316" r="8"/><circle cx="1155" cy="361.448" r="8"/><circle cx="1260" cy="589.291" r="8"/><circle cx="1365" cy="575.268" r="8"/><circle cx="1470" cy="562.895" r="8"/><circle cx="1575" cy="580.125" r="8"/><circle cx="1680" cy="759.74" r="8"/><circle cx="1785" cy="647.993" r="8"/><circle cx="1890" cy="502.531" r="8"/><circle cx="1995" cy="880.653" r="8"/></g></svg>